Coordinates
version=1
nRows=14
nColumns=40
inDegrees=yes

Units are S.I. units (second, meters, Newtons, ...)
Angles are in degrees.

endheader
time	pelvis_tilt	pelvis_list	pelvis_rotation	pelvis_tx	pelvis_ty	pelvis_tz	hip_flexion_r	hip_adduction_r	hip_rotation_r	knee_angle_r	knee_angle_r_beta	ankle_angle_r	subtalar_angle_r	mtp_angle_r	hip_flexion_l	hip_adduction_l	hip_rotation_l	knee_angle_l	knee_angle_l_beta	ankle_angle_l	subtalar_angle_l	mtp_angle_l	lumbar_extension	lumbar_bending	lumbar_rotation	arm_flex_r	arm_add_r	arm_rot_r	elbow_flex_r	pro_sup_r	wrist_flex_r	wrist_dev_r	arm_flex_l	arm_add_l	arm_rot_l	elbow_flex_l	pro_sup_l	wrist_flex_l	wrist_dev_l
     34.83000000	     -5.19159912	     -3.43666215	     -0.46688396	      1.00539140	      0.92801047	      0.44793705	     37.93352360	     -5.60648558	     -5.45067954	     75.18300485	     75.18300485	     -2.12728484	    -16.28946533	      1.70743289	     20.35905247	     -5.17352998	     -6.48510434	     23.00628361	     23.00628361	     10.49124991	    -10.28702359	     -2.80273278	    -12.93238651	      2.79995485	      2.13365493	     15.13051770	    -15.99320613	      2.05214606	    106.89194794	     44.84841756	      0.00000000	      0.00000000	     11.42596633	    -12.55400263	      7.89670442	     38.23539830	     45.32967141	      0.00000000	      0.00000000
     34.84192857	     -5.16008245	     -3.59980357	     -0.52645819	      1.00406496	      0.92881727	      0.44726532	     39.27671523	     -5.44202742	     -5.46266877	     73.71252607	     73.71252607	     -1.97105982	    -15.59370694	      1.29345448	     19.54139698	     -5.23495218	     -6.35198697	     22.55884405	     22.55884405	     10.81922374	    -10.42221955	     -2.89625937	    -13.05368395	      3.15370564	      2.39317993	     12.58577108	    -16.16893738	      1.89699812	    103.91338093	     44.93534289	      0.00000000	      0.00000000	     13.66968472	    -12.75715898	      7.83473052	     39.66169321	     45.38376862	      0.00000000	      0.00000000
     34.85385714	     -5.09239066	     -3.66661032	     -0.58897723	      1.00278621	      0.92957148	      0.44665150	     40.40910406	     -5.35596286	     -5.45089559	     71.97277384	     71.97277384	     -2.16024052	    -15.13233964	      0.12082796	     18.66340152	     -5.22292921	     -6.36514253	     22.07238399	     22.07238399	     11.01921003	    -10.43362801	     -3.37289953	    -13.17884942	      3.31910983	      2.37943231	     10.71541304	    -15.19087543	      0.04272718	     99.24214727	     45.13148055	      0.00000000	      0.00000000	     15.51691821	    -13.39472114	      8.42644405	     41.95999256	     45.39645434	      0.00000000	      0.00000000
     34.86578571	     -4.98653480	     -3.71463354	     -0.71420384	      1.00169303	      0.93032512	      0.44608979	     41.33174351	     -5.26599369	     -5.45716755	     69.98617757	     69.98617757	     -2.10414257	    -14.58468674	     -0.16006919	     17.71472335	     -5.21820885	     -6.50579031	     21.57090562	     21.57090562	     11.36451872	    -10.27543624	     -3.60531182	    -13.40206222	      3.49054898	      2.80426390	      8.64136416	    -15.38740945	     -0.42912982	     95.78321167	     45.24421586	      0.00000000	      0.00000000	     17.66109870	    -13.61622135	      8.56979354	     43.86213959	     45.43729321	      0.00000000	      0.00000000
     34.87771429	     -4.91034343	     -3.74137775	     -0.79654088	      1.00074674	      0.93094737	      0.44560000	     42.07318677	     -5.20598087	     -5.53334870	     67.67671063	     67.67671063	     -2.19666379	    -14.29037662	     -0.74910463	     16.79799259	     -5.18323337	     -6.58945492	     21.04077807	     21.04077807	     11.53133632	    -10.18827957	     -4.18537253	    -13.52769288	      3.61413231	      2.56532985	      7.44826931	    -14.23902448	     -2.12976241	     90.76617534	     45.43989065	      0.00000000	      0.00000000	     19.10789055	    -14.56357576	      9.52789627	     46.63887996	     45.43770182	      0.00000000	      0.00000000
     34.88964286	     -4.82602569	     -3.71551629	     -0.96878854	      0.99996155	      0.93151607	      0.44525032	     42.63094788	     -5.16730604	     -5.64840704	     65.05696357	     65.05696357	     -2.19610370	    -13.99781506	     -0.87009828	     15.82088508	     -5.10412305	     -6.77296054	     20.45568214	     20.45568214	     11.73794485	    -10.10767562	     -4.61682523	    -13.69341770	      3.66997450	      2.74834455	      6.17466084	    -13.89639308	     -3.04124850	     86.39132935	     45.58652203	      0.00000000	      0.00000000	     20.72962022	    -15.15666992	     10.00599922	     49.15143227	     45.48894702	      0.00000000	      0.00000000
     34.90157143	     -4.72193388	     -3.65250849	     -1.18825137	      0.99942007	      0.93201832	      0.44500846	     42.96489324	     -5.12848741	     -5.79450793	     62.12072689	     62.12072689	     -2.04441003	    -13.73343704	     -0.70753090	     14.78135002	     -4.99265317	     -7.01493378	     19.83977377	     19.83977377	     12.03205620	     -9.96975424	     -4.82218867	    -13.91426491	      3.69527056	      3.33272253	      4.54985787	    -14.15196402	     -3.44918969	     82.91388589	     45.69673577	      0.00000000	      0.00000000	     22.62159416	    -15.21508614	      9.94256863	     51.18523382	     45.55593207	      0.00000000	      0.00000000
     34.91350000	     -4.69311675	     -3.56435250	     -1.37959615	      0.99901435	      0.93229405	      0.44489366	     43.14455538	     -5.11916574	     -6.05612885	     58.80475734	     58.80475734	     -1.97259462	    -13.52744351	     -0.86448247	     13.82327639	     -4.85512595	     -7.22750070	     19.20579227	     19.20579227	     12.15354751	     -9.86969155	     -5.45033062	    -13.95520777	      3.67437456	      3.13299631	      4.12043243	    -13.31396993	     -4.77089547	     77.34166678	     45.89104528	      0.00000000	      0.00000000	     23.63051442	    -16.06597233	     10.10679900	     54.25212996	     45.64373742	      0.00000000	      0.00000000
     34.92542857	     -4.61907866	     -3.43963034	     -1.64034165	      0.99884923	      0.93250509	      0.44489729	     43.06648775	     -5.08811922	     -6.34781012	     55.17129009	     55.17129009	     -1.72198948	    -13.12006443	     -0.71837498	     12.76821167	     -4.68595538	     -7.53681376	     18.54539413	     18.54539413	     12.40806064	     -9.69412711	     -5.68354672	    -14.13864206	      3.63234985	      3.82998406	      2.62953567	    -13.75108766	     -4.96420316	     73.97042921	     45.98996091	      0.00000000	      0.00000000	     25.29871822	    -15.99284023	      9.84923443	     56.52340892	     45.72890232	      0.00000000	      0.00000000
     34.93735714	     -4.65094029	     -3.30113062	     -1.86259946	      0.99887768	      0.93244058	      0.44504554	     42.82988963	     -5.06105960	     -6.76925249	     51.13880547	     51.13880547	     -1.64033325	    -12.62933291	     -1.18186730	     11.81336406	     -4.51051883	     -7.85685199	     17.84808799	     17.84808799	     12.48849729	     -9.50182467	     -6.49749391	    -14.08282375	      3.53194123	      3.45047848	      2.82570116	    -13.08543512	     -5.96838952	     67.57774914	     46.19666160	      0.00000000	      0.00000000	     25.78722728	    -16.91964346	      9.53149813	     60.17109397	     45.86803083	      0.00000000	      0.00000000
     34.94928571	     -4.57857504	     -3.18034574	     -2.08403706	      0.99914004	      0.93237519	      0.44520934	     42.24252127	     -4.99118015	     -7.29202310	     46.84253673	     46.84253673	     -1.25623346	    -11.63469481	     -0.94409730	     10.73642927	     -4.33453741	     -8.12541325	     17.18823089	     17.18823089	     12.79479529	     -9.26642215	     -6.72197228	    -14.25848864	      3.52350314	      4.21094790	      1.22176430	    -13.72062017	     -5.89370369	     64.76789193	     46.26996359	      0.00000000	      0.00000000	     27.26290506	    -16.58467796	      9.14447543	     62.38493266	     45.95665582	      0.00000000	      0.00000000
     34.96121429	     -4.56100263	     -2.86259486	     -2.35265450	      0.99977342	      0.93191562	      0.44560758	     41.58040932	     -5.01581309	     -7.69212056	     42.46286824	     42.46286824	     -0.82746549	    -10.25648335	     -1.05620887	      9.62087870	     -3.97946044	     -8.66498311	     16.38317378	     16.38317378	     12.93464802	     -8.79592468	     -7.49151198	    -14.23179169	      3.15208837	      4.42491034	      0.99240407	    -13.63015438	     -6.27875127	     58.78304688	     46.45406772	      0.00000000	      0.00000000	     28.03474974	    -16.92560945	      8.59814853	     66.06224215	     46.09960302	      0.00000000	      0.00000000
     34.97314286	     -4.55257216	     -2.63805706	     -2.55714549	      1.00064631	      0.93128063	      0.44601097	     40.65593137	     -4.95624662	     -8.31388884	     37.86695008	     37.86695008	     -0.40979479	     -8.48406566	     -0.67150731	      8.53493714	     -3.69985155	     -9.01985608	     15.62155740	     15.62155740	     13.04894773	     -8.49522005	     -8.41764050	    -14.16997831	      2.97072337	      3.90872400	      1.42845615	    -13.44714240	     -6.31249842	     52.57698967	     46.61644220	      0.00000000	      0.00000000	     28.08166782	    -17.71581127	      7.53125620	     69.91904296	     46.30346768	      0.00000000	      0.00000000
     34.98507143	     -4.43933813	     -2.38968115	     -2.71667893	      1.00189355	      0.93053576	      0.44646528	     39.49402351	     -4.90314832	     -8.94755120	     33.41130800	     33.41130800	      0.37499819	     -6.18191373	      0.74587847	      7.32094797	     -3.38237868	     -9.36133830	     14.87480949	     14.87480949	     13.20155840	     -8.17497453	     -9.25744664	    -14.20760286	      2.76072095	      3.57301495	      1.52809155	    -13.53969233	     -5.87526106	     47.20974312	     46.70882053	      0.00000000	      0.00000000	     28.28856852	    -18.11118642	      6.25121583	     73.49779918	     46.54164312	      0.00000000	      0.00000000
